Coordinates
version=1
nRows=17
nColumns=27
inDegrees=yes

Units are S.I. units (second, meters, Newtons, ...)
If the header above contains a line with 'inDegrees', this indicates whether rotational values are in degrees (yes) or radians (no).

endheader
time	pelvis_rotation	pelvis_tilt	pelvis_list	pelvis_tx	pelvis_ty	pelvis_tz	hip_flexion_r	hip_adduction_r	hip_rotation_r	knee_angle_r	knee_rotation_r	knee_adduction_r	knee_angle_r_beta	ankle_angle_r	subtalar_angle_r	mtp_angle_r	hip_flexion_l	hip_adduction_l	hip_rotation_l	knee_angle_l	knee_rotation_l	knee_adduction_l	knee_angle_l_beta	ankle_angle_l	subtalar_angle_l	mtp_angle_l
      4.78500000	      3.41592404	    -18.43504727	      3.15708463	      0.00887316	      0.44887913	     -1.14176514	    114.29362298	    -44.18542930	     19.15354850	    109.59459398	     -9.85677219	      9.92973266	      1.91278651	     21.64000175	      6.91402537	      0.00000000	    109.75507206	    -38.68452772	     13.51763424	    103.41519984	     -9.82099675	     -9.93982626	      1.80493573	     19.47217796	     19.35525445	      0.00000000
      4.79000000	      3.53166678	    -18.36582400	      3.00747175	      0.00906176	      0.44756296	     -1.14183473	    114.28450695	    -44.35152601	     19.14778425	    109.74805803	     -9.85888381	      9.92982906	      1.91546496	     21.69124677	      6.85881624	      0.00000000	    110.04197979	    -38.44116169	     13.88430274	    103.62206728	     -9.82478630	     -9.93993053	      1.80854625	     19.50530969	     19.27896250	      0.00000000
      4.79500000	      3.56435754	    -18.36232045	      2.99242764	      0.00916746	      0.44623800	     -1.14189018	    114.47865733	    -44.32275344	     19.32699827	    109.91936253	     -9.86058159	      9.92994042	      1.91845479	     21.71636917	      6.75784860	      0.00000000	    110.26788656	    -38.36040184	     14.06479945	    103.81226794	     -9.82851826	     -9.94013820	      1.81186588	     19.56149972	     19.19650346	      0.00000000
      4.80000000	      3.51583012	    -18.33775565	      3.04522239	      0.00928418	      0.44496243	     -1.14193617	    114.71126197	    -44.17399100	     19.58105457	    110.09617681	     -9.86215984	      9.92998658	      1.92154078	     21.72288006	      6.64322929	      0.00000000	    110.39714464	    -38.42104924	     14.14631071	    103.98341050	     -9.83249973	     -9.94030392	      1.81485288	     19.62185459	     19.14434434	      0.00000000
      4.80500000	      3.47492555	    -18.39410764	      2.74132554	      0.00933458	      0.44378789	     -1.14196070	    114.59209366	    -44.20443455	     19.28775498	    110.20534220	     -9.86399523	      9.93012873	      1.92344607	     21.76268066	      6.51611581	      0.00000000	    110.96757997	    -38.31567320	     14.72483572	    104.18796079	     -9.83415637	     -9.94055352	      1.81842296	     19.59030895	     19.11901607	      0.00000000
      4.81000000	      3.52253735	    -18.27552074	      2.94720522	      0.00949386	      0.44253253	     -1.14205030	    114.91410526	    -44.12774371	     19.79077833	    110.38470672	     -9.86555390	      9.93029704	      1.92657658	     21.84505590	      6.52977573	      0.00000000	    110.80449445	    -38.31674547	     14.58106548	    104.33010797	     -9.83828834	     -9.94054480	      1.82090389	     19.86639246	     19.08207303	      0.00000000
      4.81500000	      3.39975981	    -18.33253910	      3.03855165	      0.00949102	      0.44133711	     -1.14204157	    115.27371560	    -43.85226409	     20.07418580	    110.56538118	     -9.86635390	      9.93020100	      1.92972994	     21.72920749	      6.35546969	      0.00000000	    111.01823383	    -38.51607399	     14.62166377	    104.46893609	     -9.84143943	     -9.94085980	      1.82332690	     19.70748764	     19.15701228	      0.00000000
      4.82000000	      3.53496805	    -18.32402814	      2.95490790	      0.00958366	      0.44027387	     -1.14214185	    115.38785841	    -44.03346701	     20.15129940	    110.68593972	     -9.86778595	      9.93032459	      1.93183408	     21.76723561	      6.37443608	      0.00000000	    111.27646624	    -38.30187774	     14.84594919	    104.63059671	     -9.84392704	     -9.94088907	      1.82614841	     19.72748066	     19.08554726	      0.00000000
      4.82500000	      3.51702391	    -18.35039855	      2.92961664	      0.00959747	      0.43922265	     -1.14218388	    115.56831700	    -43.98269809	     20.26796376	    110.81654193	     -9.86891166	      9.93043475	      1.93411352	     21.77017086	      6.33641684	      0.00000000	    111.51871827	    -38.31228036	     15.01389834	    104.77372049	     -9.84607931	     -9.94105177	      1.82864639	     19.73496448	     19.10871335	      0.00000000
      4.83000000	      3.55062212	    -18.36974976	      2.96896178	      0.00959127	      0.43820529	     -1.14225012	    115.83033860	    -43.96639819	     20.48782716	    110.94610591	     -9.87009618	      9.93043732	      1.93637484	     21.76366074	      6.31113401	      0.00000000	    111.68296813	    -38.28407192	     15.07389095	    104.90388567	     -9.84857542	     -9.94119365	      1.83091820	     19.77646364	     19.06764491	      0.00000000
      4.83500000	      3.52973214	    -18.41852961	      2.92089921	      0.00957124	      0.43724898	     -1.14230208	    115.99921381	    -43.92932759	     20.55985407	    111.05761679	     -9.87103927	      9.93062210	      1.93832107	     21.75821615	      6.26712673	      0.00000000	    111.96291347	    -38.29237306	     15.26398067	    105.03655607	     -9.85010974	     -9.94128803	      1.83323374	     19.79407279	     19.11551338	      0.00000000
      4.84000000	      3.55320541	    -18.45995625	      2.90267285	      0.00953561	      0.43633077	     -1.14236333	    116.20787209	    -43.94198610	     20.68170310	    111.16599263	     -9.87201709	      9.93064646	      1.94021259	     21.75714748	      6.27045871	      0.00000000	    112.20008684	    -38.26057282	     15.40108070	    105.15948788	     -9.85173406	     -9.94138175	      1.83537930	     19.77679772	     19.14256694	      0.00000000
      4.84500000	      3.49334846	    -18.52538995	      2.93711759	      0.00941445	      0.43548036	     -1.14240801	    116.45922468	    -43.80361279	     20.83676238	    111.27181970	     -9.87290800	      9.93072128	      1.94205962	     21.73461079	      6.17824704	      0.00000000	    112.40335716	    -38.35108572	     15.45898468	    105.26161903	     -9.85348351	     -9.94152851	      1.83716183	     19.78494778	     19.14729187	      0.00000000
      4.85000000	      3.54105220	    -18.57312884	      2.99320942	      0.00932070	      0.43467250	     -1.14247642	    116.75059019	    -43.80408097	     21.05581704	    111.37427160	     -9.87364538	      9.93084967	      1.94384774	     21.70686541	      6.17179872	      0.00000000	    112.56154000	    -38.32433310	     15.47209453	    105.35985248	     -9.85488082	     -9.94161494	      1.83887633	     19.78000133	     19.13980582	      0.00000000
      4.85500000	      3.52982092	    -18.62343792	      3.00394029	      0.00921332	      0.43389481	     -1.14254218	    116.97708119	    -43.75610060	     21.18959623	    111.46890326	     -9.87440322	      9.93087508	      1.94549938	     21.66656257	      6.13124561	      0.00000000	    112.76192538	    -38.34547407	     15.54878105	    105.45467141	     -9.85588545	     -9.94169381	      1.84053123	     19.76536547	     19.13334198	      0.00000000
      4.86000000	      3.46506499	    -18.72787236	      2.97590639	      0.00899436	      0.43323295	     -1.14260648	    117.16844326	    -43.64273461	     21.22349492	    111.53327200	     -9.87509018	      9.93102983	      1.94662282	     21.62212163	      6.05895683	      0.00000000	    113.05137836	    -38.40809471	     15.67864671	    105.54785126	     -9.85727390	     -9.94175137	      1.84215752	     19.74009000	     19.15570631	      0.00000000
      4.86500000	      3.46269943	    -18.80565164	      2.97720121	      0.00881852	      0.43258503	     -1.14268675	    117.38540309	    -43.60435095	     21.31911345	    111.60306714	     -9.87568139	      9.93090963	      1.94784098	     21.59822284	      6.00403851	      0.00000000	    113.27582033	    -38.40928749	     15.74657710	    105.63299757	     -9.85804450	     -9.94182587	      1.84364361	     19.68678069	     19.12406101	      0.00000000
